<svg width="590" height="645" viewBox="0 0 590 645" fill="none" xmlns="http://www.w3.org/2000/svg">
<rect width="589" height="645" rx="30" fill="#BDB4F4"/>
<mask id="mask0_1399_3182" style="mask-type:alpha" maskUnits="userSpaceOnUse" x="127" y="212" width="737" height="690">
<g opacity="0.7">
<path opacity="0.2" d="M649.216 245.932L615.777 246.958C582.339 247.984 515.461 250.035 478.06 270.039C440.658 290.044 432.733 328.001 430.408 369.37C428.083 410.739 431.359 455.519 392.477 474.622C353.595 493.725 272.556 487.15 244.912 513.097C217.268 539.045 243.019 597.514 236.76 636.487C230.501 675.459 192.232 694.935 173.097 704.673L153.962 714.411" stroke="#4A4DC7" stroke-width="14"/>
<path opacity="0.7" d="M780.463 362.443L747.011 363.491C713.559 364.538 646.655 366.633 609.227 386.681C571.799 406.729 563.847 444.73 561.496 486.142C559.144 527.555 562.394 572.378 523.485 591.525C484.577 610.671 403.511 604.14 375.84 630.131C348.17 656.122 373.894 714.635 367.609 753.651C361.323 792.667 323.027 812.187 303.88 821.946L284.732 831.706" stroke="#4A4DC7" stroke-width="14"/>
<path opacity="0.1" d="M625.444 219.622L592.006 220.648C558.567 221.673 491.69 223.725 454.288 243.729C416.887 263.733 408.961 301.691 406.636 343.06C404.311 384.428 407.587 429.209 368.706 448.311C329.824 467.414 248.784 460.84 221.14 486.787C193.496 512.734 219.248 571.204 212.989 610.176C206.73 649.149 168.46 668.625 149.326 678.363L130.191 688.1" stroke="#4A4DC7" stroke-width="14"/>
<path opacity="0.6" d="M756.692 336.133L723.24 337.18C689.789 338.227 622.885 340.322 585.457 360.37C548.029 380.418 540.076 418.419 537.725 459.832C535.374 501.244 538.623 546.068 499.715 565.214C460.807 584.361 379.741 577.83 352.07 603.821C324.399 629.811 350.124 688.324 343.838 727.341C337.553 766.357 299.257 785.876 280.109 795.636L260.961 805.396" stroke="#4A4DC7" stroke-width="14"/>
<path opacity="0.3" d="M679.028 264.091L645.59 265.117C612.151 266.142 545.274 268.193 507.872 288.198C470.471 308.202 462.545 346.16 460.22 387.528C457.895 428.897 461.171 473.677 422.29 492.78C383.408 511.883 302.368 505.308 274.724 531.256C247.08 557.203 272.832 615.672 266.573 654.645C260.314 693.618 222.044 713.093 202.91 722.831L183.775 732.569" stroke="#4A4DC7" stroke-width="14"/>
<path opacity="0.8" d="M810.276 380.602L776.824 381.649C743.373 382.696 676.469 384.791 639.041 404.839C601.613 424.887 593.66 462.888 591.309 504.301C588.958 545.713 592.207 590.537 553.299 609.683C514.391 628.83 433.324 622.299 405.654 648.29C377.983 674.28 403.708 732.793 397.422 771.81C391.137 810.826 352.841 830.345 333.693 840.105L314.545 849.865" stroke="#4A4DC7" stroke-width="14"/>
<path opacity="0.4" d="M708.842 282.249L675.403 283.275C641.965 284.3 575.087 286.352 537.686 306.356C500.284 326.36 492.359 364.318 490.034 405.687C487.709 447.056 490.985 491.836 452.103 510.939C413.221 530.041 332.182 523.467 304.538 549.414C276.894 575.361 302.645 633.831 296.386 672.803C290.127 711.776 251.858 731.252 232.723 740.99L213.588 750.728" stroke="#4A4DC7" stroke-width="14"/>
<path d="M840.089 398.76L806.637 399.807C773.185 400.855 706.281 402.95 668.853 422.998C631.425 443.046 623.473 481.047 621.121 522.459C618.77 563.871 622.02 608.695 583.111 627.842C544.203 646.988 463.137 640.457 435.466 666.448C407.796 692.439 433.52 750.952 427.235 789.968C420.949 828.984 382.653 848.504 363.505 858.263L344.358 868.023" stroke="#4A4DC7" stroke-width="14"/>
<path opacity="0.5" d="M732.135 309.344L698.683 310.392C665.231 311.439 598.327 313.534 560.899 333.582C523.471 353.63 515.519 391.631 513.167 433.043C510.816 474.456 514.065 519.28 475.157 538.426C436.249 557.572 355.183 551.041 327.512 577.032C299.842 603.023 325.566 661.536 319.281 700.552C312.995 739.568 274.699 759.088 255.551 768.848L236.403 778.607" stroke="#4A4DC7" stroke-width="14"/>
<path d="M862.905 426.639L829.467 427.665C796.028 428.691 729.151 430.742 691.749 450.746C654.348 470.751 646.422 508.708 644.097 550.077C641.772 591.446 645.048 636.226 606.167 655.329C567.285 674.431 486.245 667.857 458.601 693.804C430.957 719.752 456.709 778.221 450.449 817.194C444.19 856.166 405.921 875.642 386.786 885.38L367.652 895.118" stroke="#4A4DC7" stroke-width="14"/>
</g>
</mask>
<g mask="url(#mask0_1399_3182)">
<rect opacity="0.7" width="589" height="645" rx="30" transform="matrix(-1 0 0 1 589.012 0)" fill="#4A4DC7"/>
</g>
<path d="M384.276 600.555C383.614 598.994 383.481 596.133 384.506 594.872C384.919 594.388 385.43 593.996 386.004 593.723C386.579 593.449 387.204 593.299 387.84 593.283C388.466 593.162 389.046 592.871 389.516 592.442C390.293 591.705 390.322 590.858 390.743 589.125C391.318 586.695 391.618 585.48 392.43 584.882C393.553 584.047 395.43 584.035 395.58 584.035C396.403 584.035 396.656 584.214 397.146 584.006C397.883 583.701 398.05 582.999 398.758 581.605C399.57 580.005 399.973 579.21 400.486 578.859C401.419 578.254 402.57 578.404 404.551 578.657C406.221 578.876 406.515 579.17 407.229 578.916C408.225 578.565 408.427 577.707 409.354 576.613C410.325 575.566 411.501 574.729 412.809 574.154C415.141 573.112 417.381 573.579 420.145 574.154C421.436 574.433 422.701 574.818 423.928 575.306C424.135 575.383 424.314 575.517 424.447 575.692C424.579 575.868 424.659 576.077 424.675 576.297C424.692 576.516 424.646 576.735 424.542 576.929C424.439 577.123 424.282 577.283 424.09 577.39L424.044 577.419C423.468 577.776 423.065 578.271 422.264 579.866C420.767 582.861 421.205 583.229 420.283 584.559C419.238 585.951 417.83 587.027 416.212 587.668C414.358 588.446 413.632 588.06 412.544 589.027C412.331 589.217 412.072 589.482 410.782 591.958C409.371 594.659 409.457 594.762 409.054 595.056C407.471 596.242 405.789 594.676 404.125 595.81C403.549 596.208 403.676 596.444 402.173 599.34C401.183 601.24 400.676 602.219 400.06 602.737C399.444 603.255 398.24 604.033 395.948 604.038C395.309 601.822 394.676 600.008 394.036 597.803C390.691 598.833 387.662 599.858 384.276 600.555Z" fill="#BBEAAB"/>
<path d="M90.9701 604.396C91.8972 603.394 92.7668 601.263 92.3349 600.031C92.1509 599.554 91.8695 599.121 91.5086 598.759C91.1476 598.397 90.7152 598.115 90.2388 597.929C89.7973 597.673 89.4363 597.298 89.1965 596.847C88.805 596.075 89.0123 595.43 89.1677 594.002C89.375 592.01 89.4845 591.014 89.0353 590.34C88.4641 589.656 87.7176 589.141 86.8759 588.849C86.254 588.63 86.0179 588.693 85.7242 588.405C85.252 587.979 85.3096 587.404 85.1484 586.154C84.9641 584.726 84.8719 584.012 84.5725 583.603C84.0312 582.901 83.1156 582.699 81.5493 582.36C80.2307 582.072 79.9255 582.216 79.4533 581.83C78.7968 581.294 78.8774 580.592 78.4686 579.527C78.0132 578.471 77.3447 577.52 76.5049 576.734C75.0193 575.318 73.1996 575.07 70.9538 574.765C69.5488 574.575 65.0111 574.298 64.8096 574.903C64.8096 575.335 66.3125 575.444 67.0093 576.348C67.3318 576.769 67.6427 577.074 67.8155 578.496C68.1379 581.168 67.7118 581.323 68.0516 582.578C68.4634 583.915 69.239 585.112 70.2916 586.033C71.4836 587.121 72.1343 587.024 72.6986 588.054C72.808 588.25 72.9347 588.521 73.2399 590.743C73.5797 593.167 73.4875 593.225 73.7063 593.547C74.5874 594.878 76.2746 594.123 77.2305 595.448C77.5645 595.908 77.3975 596.052 77.7603 598.643C77.9906 600.371 78.1173 601.211 78.4398 601.781C79.0672 602.798 80.0504 603.545 81.1981 603.877C82.2807 602.369 83.2481 601.183 84.3249 599.68C86.588 601.361 88.6149 602.962 90.9701 604.396Z" fill="#BBEAAB"/>
<path d="M382.6 600.261C380.838 599.507 378.5 597.267 378.362 595.442C378.323 594.724 378.435 594.006 378.691 593.335C378.947 592.663 379.341 592.053 379.848 591.544C380.266 590.958 380.515 590.269 380.567 589.551C380.625 588.342 379.992 587.634 378.984 585.883C377.567 583.448 376.865 582.227 377.061 581.104C377.331 579.55 378.851 578.076 378.972 577.96C379.652 577.321 379.992 577.269 380.233 576.722C380.596 575.899 380.187 575.197 379.658 573.504C379.082 571.563 378.782 570.625 378.955 569.893C379.243 568.679 380.303 567.901 382.116 566.571C383.648 565.42 384.12 565.46 384.506 564.694C385.048 563.629 384.547 562.771 384.449 561.159C384.43 559.541 384.746 557.938 385.376 556.449C386.47 553.777 388.664 552.418 391.376 550.748C392.968 549.765 394.656 548.947 396.415 548.307C396.573 548.253 396.744 548.249 396.904 548.295C397.065 548.34 397.208 548.433 397.315 548.561C397.422 548.689 397.488 548.847 397.504 549.013C397.52 549.179 397.486 549.347 397.405 549.493C397.267 549.768 397.161 550.058 397.088 550.357C396.91 551.082 396.95 551.819 397.543 553.742C398.649 557.358 399.271 557.318 399.57 559.12C399.803 561.071 399.49 563.048 398.666 564.832C397.756 566.911 396.864 567.135 396.726 568.799C396.697 569.116 396.697 569.536 397.566 572.565C398.516 575.87 398.672 575.888 398.58 576.429C398.206 578.634 395.614 578.657 395.125 580.886C394.952 581.663 395.251 581.755 396.276 585.29C396.944 587.594 397.278 588.791 397.192 589.713C397.106 590.634 396.714 592.183 394.848 593.973C392.597 592.655 390.679 591.67 388.428 590.369C386.499 593.864 384.823 597.054 382.6 600.261Z" fill="#BBEAAB"/>
<path d="M401.345 599.812C293.685 599.9 185.975 599.935 78.2158 599.916L146.286 438.202C146.607 437.437 147.149 436.784 147.842 436.328C148.536 435.872 149.349 435.632 150.179 435.64C165.041 435.789 231.217 436.083 313.972 435.824C319.203 435.804 324.324 437.327 328.693 440.205C333.062 443.082 336.484 447.184 338.532 451.998L401.345 599.812Z" fill="#FB7862"/>
<path d="M157.832 561.504C152.58 571.045 146.315 577.696 141.547 582.671C135.492 588.857 129.043 594.644 122.239 599.996C110.181 599.996 97.213 600.106 85.0166 599.996C104.728 555.412 126.362 505.018 146.056 460.434C148.527 459.405 150.492 457.443 151.527 454.975C152.561 452.507 152.582 449.731 151.584 447.248C163.93 447.634 183.831 447.202 196.442 447.202C196.056 449.568 195.59 453.253 197.698 455.931C199.805 458.608 202.512 459.962 203.922 460.756C223.058 505.438 243.863 555.136 263.004 599.812C256.589 599.91 250.168 599.847 243.759 599.939C233.394 594.094 207.285 577.425 191.404 550.31C172.741 518.457 172.032 517.858 172.833 506.187C172.153 521.941 171.583 514.709 166.349 537.643C164.494 545.86 162.37 553.27 157.832 561.504Z" fill="white"/>
<path d="M263.458 601.35C234.407 601.35 204.417 601.309 174.427 601.275C144.207 601.234 113.964 601.2 84.7108 601.194C84.5635 601.195 84.4183 601.159 84.2885 601.09C84.1586 601.02 84.0483 600.919 83.9675 600.796C83.8868 600.673 83.8382 600.532 83.8262 600.385C83.8142 600.238 83.8391 600.091 83.8988 599.956C93.8955 577.039 104.416 553.126 114.586 529.996C124.755 506.866 135.258 482.982 145.255 460.082C145.347 459.87 145.519 459.703 145.733 459.616C147.828 458.737 149.586 457.21 150.748 455.257C152.476 452.223 151.272 448.923 150.668 447.611C150.603 447.47 150.573 447.317 150.58 447.162C150.587 447.008 150.631 446.858 150.708 446.724C150.783 446.594 150.889 446.486 151.017 446.408C151.145 446.331 151.29 446.287 151.439 446.281H196.614C196.747 446.28 196.878 446.309 196.998 446.366C197.118 446.423 197.223 446.507 197.306 446.61C197.389 446.714 197.448 446.835 197.478 446.964C197.508 447.093 197.508 447.228 197.478 447.357L197.438 447.53C196.888 449.621 196.986 451.83 197.72 453.864C199.119 457.774 202.776 459.236 203.979 459.72L204.262 459.835C204.472 459.924 204.639 460.091 204.728 460.301C214.322 483.057 224.589 507.051 234.522 530.255C244.455 553.46 254.677 577.39 264.276 600.117C264.333 600.252 264.355 600.399 264.341 600.545C264.327 600.691 264.277 600.831 264.195 600.952C264.114 601.074 264.005 601.173 263.876 601.243C263.748 601.312 263.604 601.349 263.458 601.35ZM86.0986 599.421C114.943 599.421 144.702 599.461 174.456 599.495C203.991 599.53 233.514 599.565 262.145 599.576C252.719 577.218 242.659 553.708 232.916 530.958C223.034 507.862 212.819 483.99 203.265 461.332C201.797 460.756 197.714 459.029 196.079 454.457C195.332 452.409 195.149 450.197 195.549 448.054H152.758C153.443 450.017 154.008 453.156 152.286 456.115C150.999 458.308 149.061 460.045 146.741 461.084C136.796 483.892 126.333 507.678 116.221 530.681C106.224 553.443 95.8994 576.889 86.0698 599.421H86.0986Z" fill="#231F20"/>
<path d="M304.793 565.638H323.709V548.174C322.949 542.773 318.083 539.042 313.114 539.606C308.732 540.102 305.098 543.856 304.684 548.606C304.718 554.284 304.755 559.961 304.793 565.638Z" fill="white"/>
<path d="M307.66 562.224V549.049C307.856 547.502 308.6 546.075 309.758 545.029C310.916 543.984 312.41 543.388 313.97 543.35C315.53 543.313 317.051 543.836 318.258 544.824C319.465 545.813 320.278 547.202 320.548 548.739V562.114L307.66 562.224Z" fill="#4A4DC7"/>
<path d="M317.461 540.199C324.446 540.199 333.665 540.245 340.65 540.245C341.387 540.274 344.883 540.862 346.541 542.462C347.978 543.741 348.932 545.475 349.242 547.374C349.242 553.385 349.242 559.667 349.242 565.684C341.042 565.684 331.863 565.684 323.669 565.684C323.726 560.036 323.669 554.168 323.64 548.456C323.504 546.881 322.988 545.361 322.137 544.028C320.99 542.319 319.363 540.987 317.461 540.199Z" fill="#BBEAAB"/>
<path d="M338.894 565.621H326.727V600.054H338.894V565.621Z" fill="#E2F2FF"/>
<path d="M334.794 531.188H334.356C334.112 531.188 333.913 531.387 333.913 531.632V548.94C333.913 549.185 334.112 549.383 334.356 549.383H334.794C335.039 549.383 335.238 549.185 335.238 548.94V531.632C335.238 531.387 335.039 531.188 334.794 531.188Z" fill="#231F20"/>
<path d="M344.359 532.265H335.157V539.094H344.359V532.265Z" fill="#4A4DC7"/>
<path d="M169.464 506.803C170.402 503.348 175.401 503.527 176.005 507.079C177.878 517.963 181.059 528.581 185.478 538.702C189.808 548.739 197.398 558.124 202.143 565.316C201.486 569.997 200.991 576.003 194.887 584.795C190.28 591.457 184.758 597.526 181.171 599.933C163.717 599.697 139.612 600.037 122.158 599.806C136.877 578.738 152.384 556.984 165.11 520.651C166.815 515.768 168.254 511.254 169.464 506.803Z" fill="#FFCA33"/>
<path d="M177.871 599.973C181.378 597.342 188.075 590.404 191.375 584.219C196.217 575.133 198.337 566.634 198.216 559.742C202.183 565.926 208.8 572.986 217.656 581.266C227.785 590.766 238.386 596.565 243.471 599.806C220.581 599.57 200.749 600.204 177.871 599.973Z" fill="#E26F5B"/>
<path d="M283.981 423.415C284.491 420.834 285.881 418.509 287.914 416.838C289.948 415.167 292.498 414.254 295.13 414.254H301.309C305.973 414.254 310.608 416.99 311.864 423.381L311.679 423.415H283.981Z" fill="#FB7862"/>
<path d="M308.357 435.853H287.391L287.483 423.444H308.449L308.357 435.853Z" fill="#4A4DC7"/>
<path d="M440.755 599.835H57.8881C56.4252 599.835 55.2393 601.021 55.2393 602.484V605.351C55.2393 606.814 56.4252 608 57.8881 608H440.755C442.218 608 443.404 606.814 443.404 605.351V602.484C443.404 601.021 442.218 599.835 440.755 599.835Z" fill="#4A4DC7"/>
<path d="M140.332 548.606C140.167 548.608 140.005 548.562 139.866 548.474C139.667 548.349 139.525 548.151 139.471 547.922C139.417 547.694 139.456 547.453 139.578 547.253C146.984 535.358 153.188 522.755 158.097 509.63C162.963 496.61 166.533 483.142 168.756 469.422C168.773 469.307 168.813 469.197 168.874 469.097C168.935 468.998 169.015 468.912 169.109 468.844C169.203 468.775 169.31 468.727 169.424 468.701C169.537 468.674 169.654 468.671 169.769 468.691C170.002 468.729 170.21 468.857 170.348 469.048C170.486 469.239 170.543 469.477 170.506 469.71C168.264 483.546 164.664 497.127 159.761 510.258C154.806 523.491 148.551 536.199 141.086 548.197C141.006 548.324 140.895 548.429 140.763 548.5C140.631 548.572 140.482 548.608 140.332 548.606Z" fill="#231F20"/>
<path d="M105.315 583.189C105.161 583.19 105.01 583.15 104.877 583.074C104.776 583.016 104.687 582.939 104.615 582.847C104.544 582.756 104.491 582.65 104.46 582.538C104.429 582.426 104.42 582.309 104.434 582.193C104.449 582.077 104.486 581.966 104.543 581.864C109.847 572.485 115.484 562.362 120.915 550.817C125.665 540.723 129.552 531.447 133.952 519.787C133.991 519.676 134.052 519.574 134.132 519.487C134.211 519.4 134.307 519.329 134.415 519.28C134.522 519.23 134.637 519.202 134.755 519.198C134.873 519.194 134.991 519.213 135.101 519.255C135.211 519.297 135.312 519.36 135.398 519.441C135.483 519.522 135.552 519.62 135.599 519.728C135.647 519.836 135.672 519.952 135.674 520.07C135.676 520.188 135.654 520.305 135.61 520.415C131.228 532.138 127.306 541.437 122.533 551.577C117.074 563.174 111.419 573.331 106.098 582.74C106.02 582.878 105.906 582.992 105.768 583.071C105.63 583.15 105.474 583.191 105.315 583.189Z" fill="#231F20"/>
<path d="M237.615 583.384C237.451 583.382 237.29 583.336 237.149 583.252C226.628 576.711 211.195 558.32 202.022 541.386C195.008 528.442 189.63 514.979 187.269 504.459C187.23 504.235 187.279 504.005 187.405 503.816C187.531 503.626 187.725 503.493 187.947 503.442C188.168 503.392 188.401 503.429 188.597 503.545C188.792 503.662 188.935 503.849 188.997 504.068C191.329 514.432 196.644 527.733 203.583 540.539C212.635 557.237 227.768 575.341 238.093 581.743C238.258 581.845 238.384 581.998 238.454 582.178C238.524 582.359 238.532 582.557 238.479 582.743C238.426 582.929 238.313 583.092 238.158 583.208C238.003 583.324 237.814 583.386 237.621 583.384H237.615Z" fill="#231F20"/>
<path d="M214.19 526.668C214.033 526.669 213.878 526.628 213.743 526.549C213.607 526.47 213.495 526.356 213.418 526.219C209.75 519.712 205.673 510.788 200.945 498.92C197.251 489.627 194.199 480.09 191.812 470.378C191.757 470.149 191.794 469.907 191.917 469.706C192.039 469.504 192.237 469.36 192.466 469.304C192.695 469.248 192.937 469.286 193.138 469.408C193.34 469.531 193.484 469.728 193.54 469.957C195.905 479.59 198.932 489.048 202.598 498.264C207.291 510.056 211.333 518.912 214.961 525.327C215.019 525.428 215.056 525.54 215.07 525.655C215.084 525.771 215.076 525.888 215.045 526C215.014 526.113 214.961 526.218 214.889 526.31C214.818 526.401 214.729 526.478 214.627 526.536C214.496 526.619 214.345 526.664 214.19 526.668Z" fill="#231F20"/>
<path d="M239.204 573.596C239.061 573.596 238.921 573.561 238.795 573.495C238.668 573.428 238.56 573.333 238.478 573.216C235.311 568.661 226.553 555.683 224.082 550.339C224.034 550.233 224.006 550.119 224.002 550.003C223.997 549.886 224.016 549.77 224.056 549.66C224.096 549.551 224.158 549.451 224.237 549.365C224.316 549.28 224.411 549.211 224.517 549.162C224.623 549.113 224.737 549.086 224.854 549.081C224.97 549.076 225.087 549.095 225.196 549.135C225.305 549.176 225.406 549.237 225.491 549.316C225.577 549.395 225.646 549.491 225.695 549.596C227.837 554.237 235.559 565.926 239.93 572.202C240.063 572.396 240.114 572.634 240.072 572.865C240.03 573.096 239.898 573.301 239.705 573.435C239.559 573.539 239.384 573.595 239.204 573.596Z" fill="#231F20"/>
<path d="M318.129 510.379C316.776 510.377 315.451 509.999 314.301 509.288C313.15 508.576 312.221 507.558 311.616 506.348C307.77 498.569 303.785 490.289 300.059 482.504C299.569 481.49 299.347 480.368 299.414 479.244C299.482 478.12 299.837 477.032 300.445 476.084C300.854 475.445 301.43 474.719 301.936 474.08C302.316 473.602 302.673 473.153 302.858 472.871C302.917 472.767 302.998 472.676 303.094 472.604C303.19 472.532 303.299 472.48 303.416 472.451C303.533 472.423 303.654 472.418 303.772 472.438C303.891 472.457 304.004 472.501 304.105 472.566C304.206 472.631 304.293 472.715 304.361 472.815C304.428 472.914 304.475 473.026 304.497 473.144C304.52 473.262 304.519 473.383 304.493 473.501C304.468 473.618 304.419 473.729 304.349 473.827C304.119 474.19 303.773 474.65 303.33 475.186C302.886 475.721 302.305 476.476 301.942 477.04C301.497 477.733 301.237 478.53 301.187 479.352C301.138 480.175 301.301 480.997 301.66 481.738C305.386 489.517 309.365 497.792 313.211 505.559C313.671 506.501 314.393 507.29 315.289 507.834C316.186 508.377 317.219 508.651 318.267 508.623C321.786 508.53 325.477 508.381 329.041 508.237C331.264 508.145 333.494 508.056 335.733 507.972C336.255 507.954 336.758 507.765 337.164 507.436C337.57 507.107 337.858 506.654 337.984 506.147C338.145 505.484 338.307 504.776 338.462 504.097C338.583 503.555 338.698 503.031 338.813 502.559C338.867 502.33 339.01 502.132 339.211 502.008C339.411 501.885 339.652 501.846 339.881 501.9C340.111 501.954 340.309 502.097 340.432 502.298C340.556 502.498 340.595 502.739 340.541 502.968C340.426 503.44 340.31 503.959 340.19 504.488C340.034 505.179 339.873 505.899 339.706 506.567C339.488 507.449 338.988 508.237 338.283 508.81C337.577 509.384 336.704 509.712 335.796 509.745C333.567 509.826 331.333 509.918 329.116 510.01C325.54 510.154 321.843 510.304 318.313 510.396L318.129 510.379Z" fill="#231F20"/>
<path d="M302.546 478.888C306.209 486.748 310.182 494.607 313.747 502.496C314.329 503.781 315.277 504.866 316.472 505.616C317.667 506.365 319.056 506.746 320.467 506.711C325.396 506.59 330.717 506.354 335.744 506.198C336.503 506.174 337.244 505.96 337.9 505.575C338.555 505.19 339.103 504.648 339.495 503.997C339.887 503.346 340.109 502.607 340.142 501.848C340.175 501.089 340.017 500.334 339.683 499.652C336.015 492.045 332.439 484.617 328.742 476.798C327.952 475.134 326.707 473.729 325.15 472.746C323.594 471.762 321.79 471.24 319.948 471.241C315.825 471.241 311.57 471.241 307.412 471.241C306.499 471.216 305.596 471.428 304.789 471.856C303.983 472.285 303.301 472.915 302.811 473.685C302.321 474.455 302.038 475.34 301.992 476.252C301.946 477.164 302.137 478.072 302.546 478.888Z" fill="#FFCA33"/>
<path opacity="0.3" d="M399.531 454.8C393.368 454.746 389.26 449.127 390.112 443.019C390.56 439.669 391.327 438.328 392.57 436.79C394.839 433.982 398.679 432.753 402.41 432.982C403.144 433.038 403.876 432.861 404.503 432.476C405.129 432.091 405.618 431.518 405.9 430.838C407.21 427.551 410.237 422.093 416.638 419.053C417.086 418.824 428.64 413.527 438.207 420.909C440.593 422.779 442.53 425.159 443.875 427.876C445.22 430.592 445.94 433.575 445.98 436.606C445.982 437.744 446.422 438.837 447.21 439.659C447.998 440.48 449.073 440.966 450.21 441.014C451.612 441.042 452.984 441.425 454.197 442.126C457.055 443.781 459.84 448.037 458.763 454.84C436.812 455.132 419.499 454.966 399.531 454.8Z" fill="white"/>
<path opacity="0.4" d="M140.623 376.703C149.914 376.625 156.105 368.195 154.835 359.038C154.139 354.013 153.006 351.993 151.13 349.692C147.711 345.481 141.925 343.638 136.296 343.982C135.19 344.067 134.085 343.8 133.141 343.22C132.197 342.641 131.462 341.779 131.041 340.758C129.074 335.823 124.499 327.636 114.854 323.073C114.142 322.736 96.7598 314.792 82.3432 325.863C75.0229 331.499 70.8218 340.214 70.6251 349.387C70.5504 352.909 67.8048 355.926 64.2527 355.997C62.1386 356.038 60.0694 356.612 58.2383 357.664C53.9311 360.149 49.7379 366.532 51.3546 376.734C84.4359 377.208 110.523 376.953 140.623 376.703Z" fill="white"/>
<path d="M40.8239 49.9091H47.7131L54.3466 62.4375H54.6307L61.2642 49.9091H68.1534L57.5426 68.7159V79H51.4347V68.7159L40.8239 49.9091ZM76.6868 79.4261C74.4804 79.4261 72.5722 78.9574 70.9624 78.0199C69.362 77.0729 68.1262 75.7566 67.255 74.071C66.3838 72.3759 65.9482 70.411 65.9482 68.1761C65.9482 65.9223 66.3838 63.9527 67.255 62.267C68.1262 60.572 69.362 59.2557 70.9624 58.3182C72.5722 57.3712 74.4804 56.8977 76.6868 56.8977C78.8932 56.8977 80.7966 57.3712 82.397 58.3182C84.0069 59.2557 85.2474 60.572 86.1186 62.267C86.9898 63.9527 87.4254 65.9223 87.4254 68.1761C87.4254 70.411 86.9898 72.3759 86.1186 74.071C85.2474 75.7566 84.0069 77.0729 82.397 78.0199C80.7966 78.9574 78.8932 79.4261 76.6868 79.4261ZM76.7152 74.7386C77.719 74.7386 78.5571 74.4545 79.2294 73.8864C79.9018 73.3087 80.4084 72.5227 80.7493 71.5284C81.0997 70.5341 81.2749 69.4025 81.2749 68.1335C81.2749 66.8646 81.0997 65.733 80.7493 64.7386C80.4084 63.7443 79.9018 62.9583 79.2294 62.3807C78.5571 61.803 77.719 61.5142 76.7152 61.5142C75.7019 61.5142 74.8497 61.803 74.1584 62.3807C73.4766 62.9583 72.9605 63.7443 72.6101 64.7386C72.2692 65.733 72.0987 66.8646 72.0987 68.1335C72.0987 69.4025 72.2692 70.5341 72.6101 71.5284C72.9605 72.5227 73.4766 73.3087 74.1584 73.8864C74.8497 74.4545 75.7019 74.7386 76.7152 74.7386ZM105.352 69.7102V57.1818H111.403V79H105.593V75.0369H105.366C104.873 76.3153 104.054 77.3428 102.908 78.1193C101.772 78.8958 100.385 79.2841 98.7464 79.2841C97.2881 79.2841 96.005 78.9527 94.897 78.2898C93.7891 77.6269 92.9226 76.6847 92.2976 75.4631C91.6821 74.2415 91.3696 72.7784 91.3601 71.0739V57.1818H97.4112V69.9943C97.4207 71.2822 97.7663 72.3002 98.4482 73.0483C99.13 73.7964 100.044 74.1705 101.19 74.1705C101.919 74.1705 102.601 74.0047 103.235 73.6733C103.87 73.3324 104.381 72.8305 104.769 72.1676C105.167 71.5047 105.361 70.6856 105.352 69.7102ZM116.243 79V57.1818H122.109V60.9886H122.337C122.734 59.6345 123.402 58.6117 124.339 57.9205C125.277 57.2197 126.357 56.8693 127.578 56.8693C127.881 56.8693 128.208 56.8883 128.558 56.9261C128.909 56.964 129.216 57.0161 129.482 57.0824V62.4517C129.197 62.3665 128.804 62.2907 128.303 62.2244C127.801 62.1581 127.341 62.125 126.925 62.125C126.035 62.125 125.239 62.3191 124.538 62.7074C123.847 63.0862 123.298 63.6165 122.891 64.2983C122.493 64.9801 122.294 65.7661 122.294 66.6562V79H116.243ZM156.286 87.1818V75.5057H156.101C155.817 76.1117 155.414 76.7131 154.893 77.3097C154.382 77.8968 153.714 78.3845 152.891 78.7727C152.076 79.161 151.082 79.3551 149.908 79.3551C148.25 79.3551 146.75 78.929 145.405 78.0767C144.07 77.215 143.009 75.9508 142.223 74.2841C141.446 72.608 141.058 70.553 141.058 68.1193C141.058 65.6193 141.461 63.5407 142.266 61.8835C143.071 60.2169 144.141 58.9716 145.476 58.1477C146.821 57.3144 148.293 56.8977 149.893 56.8977C151.115 56.8977 152.133 57.1061 152.947 57.5227C153.771 57.9299 154.434 58.4413 154.936 59.0568C155.447 59.6629 155.836 60.2595 156.101 60.8466H156.357V57.1818H162.322V87.1818H156.286ZM151.825 74.5398C152.801 74.5398 153.625 74.2746 154.297 73.7443C154.979 73.2045 155.5 72.4517 155.859 71.4858C156.229 70.5199 156.413 69.3883 156.413 68.0909C156.413 66.7936 156.233 65.6667 155.874 64.7102C155.514 63.7538 154.993 63.0152 154.311 62.4943C153.629 61.9735 152.801 61.7131 151.825 61.7131C150.831 61.7131 149.993 61.983 149.311 62.5227C148.629 63.0625 148.113 63.8106 147.763 64.767C147.412 65.7235 147.237 66.8314 147.237 68.0909C147.237 69.3598 147.412 70.482 147.763 71.4574C148.123 72.4233 148.639 73.1809 149.311 73.7301C149.993 74.2699 150.831 74.5398 151.825 74.5398ZM181.172 69.7102V57.1818H187.223V79H181.413V75.0369H181.186C180.694 76.3153 179.875 77.3428 178.729 78.1193C177.592 78.8958 176.205 79.2841 174.567 79.2841C173.108 79.2841 171.825 78.9527 170.717 78.2898C169.609 77.6269 168.743 76.6847 168.118 75.4631C167.502 74.2415 167.19 72.7784 167.18 71.0739V57.1818H173.232V69.9943C173.241 71.2822 173.587 72.3002 174.268 73.0483C174.95 73.7964 175.864 74.1705 177.01 74.1705C177.739 74.1705 178.421 74.0047 179.055 73.6733C179.69 73.3324 180.201 72.8305 180.589 72.1676C180.987 71.5047 181.181 70.6856 181.172 69.7102ZM202.006 79.4261C199.762 79.4261 197.83 78.9716 196.211 78.0625C194.601 77.1439 193.361 75.8466 192.489 74.1705C191.618 72.4848 191.183 70.4915 191.183 68.1903C191.183 65.946 191.618 63.9763 192.489 62.2812C193.361 60.5862 194.587 59.2652 196.168 58.3182C197.759 57.3712 199.625 56.8977 201.765 56.8977C203.204 56.8977 204.544 57.1297 205.785 57.5938C207.035 58.0483 208.124 58.7348 209.052 59.6534C209.989 60.572 210.719 61.7273 211.239 63.1193C211.76 64.5019 212.021 66.1212 212.021 67.9773V69.6392H193.597V65.8892H206.325C206.325 65.018 206.135 64.2462 205.756 63.5739C205.378 62.9015 204.852 62.3759 204.18 61.9972C203.517 61.6089 202.745 61.4148 201.864 61.4148C200.946 61.4148 200.131 61.6278 199.421 62.054C198.72 62.4706 198.171 63.0341 197.773 63.7443C197.376 64.4451 197.172 65.2263 197.163 66.0881V69.6534C197.163 70.733 197.362 71.6657 197.759 72.4517C198.166 73.2377 198.739 73.8438 199.478 74.2699C200.217 74.696 201.093 74.9091 202.106 74.9091C202.778 74.9091 203.394 74.8144 203.952 74.625C204.511 74.4356 204.989 74.1515 205.387 73.7727C205.785 73.3939 206.088 72.9299 206.296 72.3807L211.893 72.75C211.609 74.0947 211.026 75.2689 210.146 76.2727C209.274 77.267 208.147 78.0436 206.765 78.6023C205.392 79.1515 203.806 79.4261 202.006 79.4261ZM234.123 63.4034L228.583 63.7443C228.488 63.2708 228.285 62.8447 227.972 62.4659C227.66 62.0777 227.248 61.7699 226.737 61.5426C226.235 61.3059 225.633 61.1875 224.933 61.1875C223.995 61.1875 223.204 61.3864 222.56 61.7841C221.916 62.1723 221.594 62.6932 221.594 63.3466C221.594 63.8674 221.803 64.3078 222.219 64.6676C222.636 65.0275 223.351 65.3163 224.364 65.5341L228.313 66.3295C230.434 66.7652 232.016 67.4659 233.058 68.4318C234.099 69.3977 234.62 70.6667 234.62 72.2386C234.62 73.6686 234.199 74.9233 233.356 76.0028C232.522 77.0824 231.377 77.9252 229.918 78.5312C228.469 79.1278 226.798 79.4261 224.904 79.4261C222.016 79.4261 219.715 78.8248 218.001 77.6222C216.296 76.41 215.297 74.7623 215.004 72.679L220.955 72.3665C221.135 73.2472 221.571 73.9195 222.262 74.3835C222.953 74.8381 223.839 75.0653 224.918 75.0653C225.979 75.0653 226.831 74.8617 227.475 74.4545C228.129 74.0379 228.46 73.5028 228.469 72.8494C228.46 72.3002 228.228 71.8504 227.773 71.5C227.319 71.1402 226.618 70.8655 225.671 70.6761L221.893 69.9233C219.762 69.4972 218.176 68.7585 217.134 67.7074C216.102 66.6562 215.586 65.3163 215.586 63.6875C215.586 62.286 215.965 61.0786 216.722 60.0653C217.489 59.0521 218.564 58.2708 219.947 57.7216C221.339 57.1723 222.968 56.8977 224.833 56.8977C227.589 56.8977 229.757 57.4801 231.339 58.6449C232.93 59.8097 233.858 61.3958 234.123 63.4034ZM250.036 57.1818V61.7273H236.896V57.1818H250.036ZM239.879 51.9545H245.93V72.2955C245.93 72.8542 246.016 73.2898 246.186 73.6023C246.357 73.9053 246.593 74.1184 246.896 74.2415C247.209 74.3646 247.569 74.4261 247.976 74.4261C248.26 74.4261 248.544 74.4025 248.828 74.3551C249.112 74.2983 249.33 74.2557 249.482 74.2273L250.433 78.7301C250.13 78.8248 249.704 78.9337 249.155 79.0568C248.606 79.1894 247.938 79.2699 247.152 79.2983C245.694 79.3551 244.415 79.161 243.317 78.7159C242.228 78.2708 241.38 77.5795 240.774 76.642C240.168 75.7045 239.87 74.5208 239.879 73.0909V51.9545ZM253.977 79V57.1818H260.028V79H253.977ZM257.017 54.3693C256.117 54.3693 255.346 54.071 254.702 53.4744C254.067 52.8684 253.75 52.1439 253.75 51.3011C253.75 50.4678 254.067 49.7528 254.702 49.1562C255.346 48.5502 256.117 48.2472 257.017 48.2472C257.917 48.2472 258.684 48.5502 259.318 49.1562C259.962 49.7528 260.284 50.4678 260.284 51.3011C260.284 52.1439 259.962 52.8684 259.318 53.4744C258.684 54.071 257.917 54.3693 257.017 54.3693ZM274.734 79.4261C272.527 79.4261 270.619 78.9574 269.009 78.0199C267.409 77.0729 266.173 75.7566 265.302 74.071C264.431 72.3759 263.995 70.411 263.995 68.1761C263.995 65.9223 264.431 63.9527 265.302 62.267C266.173 60.572 267.409 59.2557 269.009 58.3182C270.619 57.3712 272.527 56.8977 274.734 56.8977C276.94 56.8977 278.844 57.3712 280.444 58.3182C282.054 59.2557 283.294 60.572 284.165 62.267C285.037 63.9527 285.472 65.9223 285.472 68.1761C285.472 70.411 285.037 72.3759 284.165 74.071C283.294 75.7566 282.054 77.0729 280.444 78.0199C278.844 78.9574 276.94 79.4261 274.734 79.4261ZM274.762 74.7386C275.766 74.7386 276.604 74.4545 277.276 73.8864C277.949 73.3087 278.455 72.5227 278.796 71.5284C279.147 70.5341 279.322 69.4025 279.322 68.1335C279.322 66.8646 279.147 65.733 278.796 64.7386C278.455 63.7443 277.949 62.9583 277.276 62.3807C276.604 61.803 275.766 61.5142 274.762 61.5142C273.749 61.5142 272.897 61.803 272.205 62.3807C271.523 62.9583 271.007 63.7443 270.657 64.7386C270.316 65.733 270.146 66.8646 270.146 68.1335C270.146 69.4025 270.316 70.5341 270.657 71.5284C271.007 72.5227 271.523 73.3087 272.205 73.8864C272.897 74.4545 273.749 74.7386 274.762 74.7386ZM295.458 66.3864V79H289.407V57.1818H295.174V61.0312H295.43C295.913 59.7623 296.722 58.7585 297.859 58.0199C298.995 57.2718 300.373 56.8977 301.992 56.8977C303.507 56.8977 304.828 57.2292 305.955 57.892C307.082 58.5549 307.958 59.5019 308.583 60.733C309.208 61.9545 309.521 63.4129 309.521 65.108V79H303.469V66.1875C303.479 64.8523 303.138 63.8106 302.447 63.0625C301.755 62.3049 300.804 61.9261 299.592 61.9261C298.777 61.9261 298.058 62.1013 297.433 62.4517C296.817 62.8021 296.334 63.3134 295.984 63.9858C295.643 64.6487 295.468 65.4489 295.458 66.3864ZM323.548 79V57.1818H329.599V79H323.548ZM326.587 54.3693C325.688 54.3693 324.916 54.071 324.272 53.4744C323.638 52.8684 323.32 52.1439 323.32 51.3011C323.32 50.4678 323.638 49.7528 324.272 49.1562C324.916 48.5502 325.688 48.2472 326.587 48.2472C327.487 48.2472 328.254 48.5502 328.888 49.1562C329.532 49.7528 329.854 50.4678 329.854 51.3011C329.854 52.1439 329.532 52.8684 328.888 53.4744C328.254 54.071 327.487 54.3693 326.587 54.3693ZM352.599 63.4034L347.06 63.7443C346.965 63.2708 346.761 62.8447 346.449 62.4659C346.136 62.0777 345.724 61.7699 345.213 61.5426C344.711 61.3059 344.11 61.1875 343.409 61.1875C342.472 61.1875 341.681 61.3864 341.037 61.7841C340.393 62.1723 340.071 62.6932 340.071 63.3466C340.071 63.8674 340.279 64.3078 340.696 64.6676C341.113 65.0275 341.828 65.3163 342.841 65.5341L346.79 66.3295C348.911 66.7652 350.492 67.4659 351.534 68.4318C352.576 69.3977 353.097 70.6667 353.097 72.2386C353.097 73.6686 352.675 74.9233 351.832 76.0028C350.999 77.0824 349.853 77.9252 348.395 78.5312C346.946 79.1278 345.275 79.4261 343.381 79.4261C340.492 79.4261 338.191 78.8248 336.477 77.6222C334.773 76.41 333.774 74.7623 333.48 72.679L339.432 72.3665C339.612 73.2472 340.047 73.9195 340.739 74.3835C341.43 74.8381 342.315 75.0653 343.395 75.0653C344.455 75.0653 345.308 74.8617 345.952 74.4545C346.605 74.0379 346.937 73.5028 346.946 72.8494C346.937 72.3002 346.705 71.8504 346.25 71.5C345.795 71.1402 345.095 70.8655 344.148 70.6761L340.369 69.9233C338.239 69.4972 336.652 68.7585 335.611 67.7074C334.579 66.6562 334.062 65.3163 334.062 63.6875C334.062 62.286 334.441 61.0786 335.199 60.0653C335.966 59.0521 337.041 58.2708 338.423 57.7216C339.815 57.1723 341.444 56.8977 343.31 56.8977C346.065 56.8977 348.234 57.4801 349.815 58.6449C351.406 59.8097 352.334 61.3958 352.599 63.4034ZM60.5682 111.403L55.0284 111.744C54.9337 111.271 54.7301 110.845 54.4176 110.466C54.1051 110.078 53.6932 109.77 53.1818 109.543C52.6799 109.306 52.0786 109.188 51.3778 109.188C50.4403 109.188 49.6496 109.386 49.0057 109.784C48.3617 110.172 48.0398 110.693 48.0398 111.347C48.0398 111.867 48.2481 112.308 48.6648 112.668C49.0814 113.027 49.7964 113.316 50.8097 113.534L54.7585 114.33C56.8797 114.765 58.4612 115.466 59.5028 116.432C60.5445 117.398 61.0653 118.667 61.0653 120.239C61.0653 121.669 60.6439 122.923 59.8011 124.003C58.9678 125.082 57.822 125.925 56.3636 126.531C54.9148 127.128 53.2434 127.426 51.3494 127.426C48.4612 127.426 46.16 126.825 44.446 125.622C42.7415 124.41 41.7424 122.762 41.4489 120.679L47.4006 120.366C47.5805 121.247 48.0161 121.92 48.7074 122.384C49.3987 122.838 50.2841 123.065 51.3636 123.065C52.4242 123.065 53.2765 122.862 53.9205 122.455C54.5739 122.038 54.9053 121.503 54.9148 120.849C54.9053 120.3 54.6733 119.85 54.2188 119.5C53.7642 119.14 53.0634 118.866 52.1165 118.676L48.3381 117.923C46.2074 117.497 44.6212 116.759 43.5795 115.707C42.5473 114.656 42.0312 113.316 42.0312 111.688C42.0312 110.286 42.41 109.079 43.1676 108.065C43.9347 107.052 45.0095 106.271 46.392 105.722C47.7841 105.172 49.4129 104.898 51.2784 104.898C54.0341 104.898 56.2027 105.48 57.7841 106.645C59.375 107.81 60.303 109.396 60.5682 111.403ZM71.0973 127.412C69.7053 127.412 68.4647 127.17 67.3757 126.688C66.2867 126.195 65.425 125.471 64.7905 124.514C64.1655 123.548 63.853 122.346 63.853 120.906C63.853 119.694 64.0755 118.676 64.5206 117.852C64.9657 117.028 65.5717 116.366 66.3388 115.864C67.1058 115.362 67.977 114.983 68.9524 114.727C69.9373 114.472 70.9695 114.292 72.049 114.188C73.3179 114.055 74.3407 113.932 75.1172 113.818C75.8937 113.695 76.4572 113.515 76.8075 113.278C77.1579 113.042 77.3331 112.691 77.3331 112.227V112.142C77.3331 111.242 77.049 110.546 76.4808 110.054C75.9221 109.562 75.1267 109.315 74.0945 109.315C73.0054 109.315 72.139 109.557 71.495 110.04C70.8511 110.513 70.425 111.11 70.2166 111.83L64.62 111.375C64.9041 110.049 65.4628 108.903 66.2962 107.938C67.1295 106.962 68.2043 106.214 69.5206 105.693C70.8464 105.163 72.3804 104.898 74.1229 104.898C75.335 104.898 76.495 105.04 77.603 105.324C78.7204 105.608 79.71 106.048 80.5717 106.645C81.4429 107.241 82.1295 108.009 82.6314 108.946C83.1333 109.874 83.3842 110.987 83.3842 112.284V127H77.6456V123.974H77.4751C77.1248 124.656 76.656 125.258 76.0689 125.778C75.4818 126.29 74.7763 126.692 73.9524 126.986C73.1286 127.27 72.1768 127.412 71.0973 127.412ZM72.8303 123.236C73.7204 123.236 74.5064 123.061 75.1882 122.71C75.87 122.35 76.4051 121.867 76.7933 121.261C77.1816 120.655 77.3757 119.969 77.3757 119.202V116.886C77.1863 117.009 76.9259 117.123 76.5945 117.227C76.2725 117.322 75.9079 117.412 75.5007 117.497C75.0935 117.573 74.6863 117.644 74.2791 117.71C73.8719 117.767 73.5026 117.819 73.1712 117.866C72.4609 117.971 71.8407 118.136 71.3104 118.364C70.7801 118.591 70.3681 118.899 70.0746 119.287C69.781 119.666 69.6342 120.139 69.6342 120.707C69.6342 121.531 69.9325 122.161 70.5291 122.597C71.1352 123.023 71.9022 123.236 72.8303 123.236ZM99.8118 105.182V109.727H86.3459V105.182H99.8118ZM89.4283 127V103.605C89.4283 102.024 89.736 100.712 90.3516 99.6705C90.9766 98.6288 91.8288 97.8475 92.9084 97.3267C93.9879 96.8059 95.2143 96.5455 96.5874 96.5455C97.5154 96.5455 98.3629 96.6165 99.13 96.7585C99.9065 96.9006 100.484 97.0284 100.863 97.142L99.7834 101.688C99.5466 101.612 99.2531 101.541 98.9027 101.474C98.5618 101.408 98.2114 101.375 97.8516 101.375C96.9614 101.375 96.3411 101.583 95.9908 102C95.6404 102.407 95.4652 102.98 95.4652 103.719V127H89.4283ZM112.67 127.426C110.426 127.426 108.494 126.972 106.875 126.062C105.265 125.144 104.025 123.847 103.153 122.17C102.282 120.485 101.847 118.491 101.847 116.19C101.847 113.946 102.282 111.976 103.153 110.281C104.025 108.586 105.251 107.265 106.832 106.318C108.423 105.371 110.289 104.898 112.429 104.898C113.868 104.898 115.208 105.13 116.449 105.594C117.699 106.048 118.788 106.735 119.716 107.653C120.653 108.572 121.383 109.727 121.903 111.119C122.424 112.502 122.685 114.121 122.685 115.977V117.639H104.261V113.889H116.989C116.989 113.018 116.799 112.246 116.42 111.574C116.042 110.902 115.516 110.376 114.844 109.997C114.181 109.609 113.409 109.415 112.528 109.415C111.61 109.415 110.795 109.628 110.085 110.054C109.384 110.471 108.835 111.034 108.438 111.744C108.04 112.445 107.836 113.226 107.827 114.088V117.653C107.827 118.733 108.026 119.666 108.423 120.452C108.83 121.238 109.403 121.844 110.142 122.27C110.881 122.696 111.757 122.909 112.77 122.909C113.442 122.909 114.058 122.814 114.616 122.625C115.175 122.436 115.653 122.152 116.051 121.773C116.449 121.394 116.752 120.93 116.96 120.381L122.557 120.75C122.273 122.095 121.69 123.269 120.81 124.273C119.938 125.267 118.812 126.044 117.429 126.602C116.056 127.152 114.47 127.426 112.67 127.426ZM140.195 127L134.258 105.182H140.38L143.761 119.841H143.96L147.482 105.182H153.491L157.07 119.756H157.255L160.579 105.182H166.687L160.763 127H154.357L150.607 113.278H150.337L146.587 127H140.195ZM169.915 127V105.182H175.966V127H169.915ZM172.955 102.369C172.055 102.369 171.283 102.071 170.639 101.474C170.005 100.868 169.688 100.144 169.688 99.3011C169.688 98.4678 170.005 97.7528 170.639 97.1562C171.283 96.5502 172.055 96.2472 172.955 96.2472C173.854 96.2472 174.621 96.5502 175.256 97.1562C175.9 97.7528 176.222 98.4678 176.222 99.3011C176.222 100.144 175.9 100.868 175.256 101.474C174.621 102.071 173.854 102.369 172.955 102.369ZM192.418 105.182V109.727H179.279V105.182H192.418ZM182.262 99.9545H188.313V120.295C188.313 120.854 188.398 121.29 188.569 121.602C188.739 121.905 188.976 122.118 189.279 122.241C189.592 122.365 189.951 122.426 190.359 122.426C190.643 122.426 190.927 122.402 191.211 122.355C191.495 122.298 191.713 122.256 191.864 122.227L192.816 126.73C192.513 126.825 192.087 126.934 191.538 127.057C190.988 127.189 190.321 127.27 189.535 127.298C188.076 127.355 186.798 127.161 185.7 126.716C184.611 126.271 183.763 125.58 183.157 124.642C182.551 123.705 182.253 122.521 182.262 121.091V99.9545ZM202.88 114.386V127H196.829V97.9091H202.71V109.031H202.965C203.458 107.743 204.253 106.735 205.352 106.006C206.45 105.267 207.828 104.898 209.485 104.898C211 104.898 212.321 105.229 213.448 105.892C214.585 106.545 215.465 107.488 216.09 108.719C216.725 109.94 217.037 111.403 217.028 113.108V127H210.977V114.188C210.986 112.843 210.645 111.796 209.954 111.048C209.272 110.3 208.316 109.926 207.085 109.926C206.261 109.926 205.531 110.101 204.897 110.452C204.272 110.802 203.78 111.313 203.42 111.986C203.069 112.649 202.889 113.449 202.88 114.386ZM245.039 117.71V105.182H251.09V127H245.281V123.037H245.053C244.561 124.315 243.742 125.343 242.596 126.119C241.46 126.896 240.072 127.284 238.434 127.284C236.976 127.284 235.692 126.953 234.585 126.29C233.477 125.627 232.61 124.685 231.985 123.463C231.37 122.241 231.057 120.778 231.048 119.074V105.182H237.099V117.994C237.108 119.282 237.454 120.3 238.136 121.048C238.817 121.796 239.731 122.17 240.877 122.17C241.606 122.17 242.288 122.005 242.923 121.673C243.557 121.332 244.068 120.83 244.457 120.168C244.854 119.505 245.049 118.686 245.039 117.71ZM274.084 111.403L268.544 111.744C268.449 111.271 268.246 110.845 267.933 110.466C267.621 110.078 267.209 109.77 266.697 109.543C266.196 109.306 265.594 109.188 264.893 109.188C263.956 109.188 263.165 109.386 262.521 109.784C261.877 110.172 261.555 110.693 261.555 111.347C261.555 111.867 261.764 112.308 262.18 112.668C262.597 113.027 263.312 113.316 264.325 113.534L268.274 114.33C270.395 114.765 271.977 115.466 273.018 116.432C274.06 117.398 274.581 118.667 274.581 120.239C274.581 121.669 274.16 122.923 273.317 124.003C272.483 125.082 271.338 125.925 269.879 126.531C268.43 127.128 266.759 127.426 264.865 127.426C261.977 127.426 259.676 126.825 257.962 125.622C256.257 124.41 255.258 122.762 254.964 120.679L260.916 120.366C261.096 121.247 261.532 121.92 262.223 122.384C262.914 122.838 263.8 123.065 264.879 123.065C265.94 123.065 266.792 122.862 267.436 122.455C268.089 122.038 268.421 121.503 268.43 120.849C268.421 120.3 268.189 119.85 267.734 119.5C267.28 119.14 266.579 118.866 265.632 118.676L261.854 117.923C259.723 117.497 258.137 116.759 257.095 115.707C256.063 114.656 255.547 113.316 255.547 111.688C255.547 110.286 255.926 109.079 256.683 108.065C257.45 107.052 258.525 106.271 259.908 105.722C261.3 105.172 262.929 104.898 264.794 104.898C267.55 104.898 269.718 105.48 271.3 106.645C272.891 107.81 273.819 109.396 274.084 111.403ZM285.621 97.9091L285.067 118.278H279.869L279.3 97.9091H285.621ZM282.468 127.369C281.531 127.369 280.726 127.038 280.053 126.375C279.381 125.703 279.049 124.898 279.059 123.96C279.049 123.032 279.381 122.237 280.053 121.574C280.726 120.911 281.531 120.58 282.468 120.58C283.368 120.58 284.158 120.911 284.84 121.574C285.522 122.237 285.868 123.032 285.877 123.96C285.868 124.585 285.702 125.158 285.38 125.679C285.067 126.19 284.656 126.602 284.144 126.915C283.633 127.218 283.074 127.369 282.468 127.369ZM68.196 156.094H61.9744C61.8608 155.289 61.6288 154.574 61.2784 153.949C60.928 153.314 60.4782 152.775 59.929 152.33C59.3797 151.884 58.7453 151.544 58.0256 151.307C57.3153 151.07 56.5436 150.952 55.7102 150.952C54.2045 150.952 52.893 151.326 51.7756 152.074C50.6581 152.812 49.7917 153.892 49.1761 155.312C48.5606 156.723 48.2528 158.437 48.2528 160.455C48.2528 162.528 48.5606 164.271 49.1761 165.682C49.8011 167.093 50.6723 168.158 51.7898 168.878C52.9072 169.598 54.1998 169.957 55.6676 169.957C56.4915 169.957 57.2538 169.848 57.9545 169.631C58.6648 169.413 59.2945 169.096 59.8438 168.679C60.393 168.253 60.8475 167.737 61.2074 167.131C61.5767 166.525 61.8324 165.833 61.9744 165.057L68.196 165.085C68.035 166.42 67.6326 167.708 66.9886 168.949C66.3542 170.18 65.4972 171.283 64.4176 172.259C63.3475 173.224 62.0691 173.991 60.5824 174.56C59.1051 175.118 57.4337 175.398 55.5682 175.398C52.9735 175.398 50.6534 174.811 48.608 173.636C46.572 172.462 44.9621 170.762 43.7784 168.537C42.6042 166.312 42.017 163.617 42.017 160.455C42.017 157.282 42.6136 154.583 43.8068 152.358C45 150.133 46.6193 148.437 48.6648 147.273C50.7102 146.098 53.0114 145.511 55.5682 145.511C57.2538 145.511 58.8163 145.748 60.2557 146.222C61.7045 146.695 62.9877 147.386 64.1051 148.295C65.2225 149.195 66.1316 150.298 66.8324 151.605C67.5426 152.912 67.9972 154.408 68.196 156.094ZM82.3509 175.426C80.1444 175.426 78.2363 174.957 76.6264 174.02C75.026 173.073 73.7902 171.757 72.919 170.071C72.0478 168.376 71.6122 166.411 71.6122 164.176C71.6122 161.922 72.0478 159.953 72.919 158.267C73.7902 156.572 75.026 155.256 76.6264 154.318C78.2363 153.371 80.1444 152.898 82.3509 152.898C84.5573 152.898 86.4607 153.371 88.0611 154.318C89.6709 155.256 90.9115 156.572 91.7827 158.267C92.6539 159.953 93.0895 161.922 93.0895 164.176C93.0895 166.411 92.6539 168.376 91.7827 170.071C90.9115 171.757 89.6709 173.073 88.0611 174.02C86.4607 174.957 84.5573 175.426 82.3509 175.426ZM82.3793 170.739C83.383 170.739 84.2211 170.455 84.8935 169.886C85.5658 169.309 86.0724 168.523 86.4134 167.528C86.7637 166.534 86.9389 165.402 86.9389 164.134C86.9389 162.865 86.7637 161.733 86.4134 160.739C86.0724 159.744 85.5658 158.958 84.8935 158.381C84.2211 157.803 83.383 157.514 82.3793 157.514C81.366 157.514 80.5137 157.803 79.8224 158.381C79.1406 158.958 78.6245 159.744 78.2741 160.739C77.9332 161.733 77.7628 162.865 77.7628 164.134C77.7628 165.402 77.9332 166.534 78.2741 167.528C78.6245 168.523 79.1406 169.309 79.8224 169.886C80.5137 170.455 81.366 170.739 82.3793 170.739ZM97.0241 175V153.182H102.791V157.031H103.047C103.501 155.753 104.259 154.744 105.32 154.006C106.38 153.267 107.649 152.898 109.126 152.898C110.623 152.898 111.896 153.272 112.947 154.02C113.999 154.759 114.699 155.762 115.05 157.031H115.277C115.722 155.781 116.527 154.782 117.692 154.034C118.866 153.277 120.253 152.898 121.854 152.898C123.89 152.898 125.542 153.546 126.811 154.844C128.089 156.132 128.729 157.959 128.729 160.327V175H122.692V161.52C122.692 160.308 122.37 159.399 121.726 158.793C121.082 158.187 120.277 157.884 119.311 157.884C118.213 157.884 117.356 158.234 116.74 158.935C116.125 159.626 115.817 160.54 115.817 161.676V175H109.95V161.392C109.95 160.322 109.643 159.47 109.027 158.835C108.421 158.201 107.621 157.884 106.626 157.884C105.954 157.884 105.348 158.054 104.808 158.395C104.278 158.726 103.857 159.195 103.544 159.801C103.232 160.398 103.075 161.098 103.075 161.903V175H97.0241ZM143.452 175.426C141.207 175.426 139.276 174.972 137.656 174.062C136.046 173.144 134.806 171.847 133.935 170.17C133.063 168.485 132.628 166.491 132.628 164.19C132.628 161.946 133.063 159.976 133.935 158.281C134.806 156.586 136.032 155.265 137.614 154.318C139.205 153.371 141.07 152.898 143.21 152.898C144.65 152.898 145.99 153.13 147.23 153.594C148.48 154.048 149.569 154.735 150.497 155.653C151.435 156.572 152.164 157.727 152.685 159.119C153.205 160.502 153.466 162.121 153.466 163.977V165.639H135.043V161.889H147.77C147.77 161.018 147.58 160.246 147.202 159.574C146.823 158.902 146.297 158.376 145.625 157.997C144.962 157.609 144.19 157.415 143.31 157.415C142.391 157.415 141.577 157.628 140.866 158.054C140.166 158.471 139.616 159.034 139.219 159.744C138.821 160.445 138.617 161.226 138.608 162.088V165.653C138.608 166.733 138.807 167.666 139.205 168.452C139.612 169.238 140.185 169.844 140.923 170.27C141.662 170.696 142.538 170.909 143.551 170.909C144.223 170.909 144.839 170.814 145.398 170.625C145.956 170.436 146.435 170.152 146.832 169.773C147.23 169.394 147.533 168.93 147.741 168.381L153.338 168.75C153.054 170.095 152.472 171.269 151.591 172.273C150.72 173.267 149.593 174.044 148.21 174.602C146.837 175.152 145.251 175.426 143.452 175.426ZM176.531 175.426C174.324 175.426 172.416 174.957 170.806 174.02C169.206 173.073 167.97 171.757 167.099 170.071C166.228 168.376 165.792 166.411 165.792 164.176C165.792 161.922 166.228 159.953 167.099 158.267C167.97 156.572 169.206 155.256 170.806 154.318C172.416 153.371 174.324 152.898 176.531 152.898C178.737 152.898 180.64 153.371 182.241 154.318C183.851 155.256 185.091 156.572 185.962 158.267C186.834 159.953 187.269 161.922 187.269 164.176C187.269 166.411 186.834 168.376 185.962 170.071C185.091 171.757 183.851 173.073 182.241 174.02C180.64 174.957 178.737 175.426 176.531 175.426ZM176.559 170.739C177.563 170.739 178.401 170.455 179.073 169.886C179.746 169.309 180.252 168.523 180.593 167.528C180.943 166.534 181.119 165.402 181.119 164.134C181.119 162.865 180.943 161.733 180.593 160.739C180.252 159.744 179.746 158.958 179.073 158.381C178.401 157.803 177.563 157.514 176.559 157.514C175.546 157.514 174.693 157.803 174.002 158.381C173.32 158.958 172.804 159.744 172.454 160.739C172.113 161.733 171.942 162.865 171.942 164.134C171.942 165.402 172.113 166.534 172.454 167.528C172.804 168.523 173.32 169.309 174.002 169.886C174.693 170.455 175.546 170.739 176.559 170.739ZM197.255 162.386V175H191.204V153.182H196.971V157.031H197.227C197.71 155.762 198.519 154.759 199.656 154.02C200.792 153.272 202.17 152.898 203.789 152.898C205.304 152.898 206.625 153.229 207.752 153.892C208.879 154.555 209.755 155.502 210.38 156.733C211.005 157.955 211.317 159.413 211.317 161.108V175H205.266V162.188C205.276 160.852 204.935 159.811 204.244 159.062C203.552 158.305 202.601 157.926 201.388 157.926C200.574 157.926 199.854 158.101 199.229 158.452C198.614 158.802 198.131 159.313 197.781 159.986C197.44 160.649 197.264 161.449 197.255 162.386ZM225.344 175V153.182H231.396V175H225.344ZM228.384 150.369C227.485 150.369 226.713 150.071 226.069 149.474C225.434 148.868 225.117 148.144 225.117 147.301C225.117 146.468 225.434 145.753 226.069 145.156C226.713 144.55 227.485 144.247 228.384 144.247C229.284 144.247 230.051 144.55 230.685 145.156C231.329 145.753 231.651 146.468 231.651 147.301C231.651 148.144 231.329 148.868 230.685 149.474C230.051 150.071 229.284 150.369 228.384 150.369ZM242.294 162.386V175H236.243V153.182H242.01V157.031H242.266C242.749 155.762 243.558 154.759 244.695 154.02C245.831 153.272 247.209 152.898 248.828 152.898C250.343 152.898 251.664 153.229 252.791 153.892C253.918 154.555 254.794 155.502 255.419 156.733C256.044 157.955 256.357 159.413 256.357 161.108V175H250.305V162.188C250.315 160.852 249.974 159.811 249.283 159.062C248.591 158.305 247.64 157.926 246.428 157.926C245.613 157.926 244.893 158.101 244.268 158.452C243.653 158.802 243.17 159.313 242.82 159.986C242.479 160.649 242.304 161.449 242.294 162.386ZM276.605 175.412C275.213 175.412 273.973 175.17 272.884 174.688C271.795 174.195 270.933 173.471 270.298 172.514C269.673 171.548 269.361 170.346 269.361 168.906C269.361 167.694 269.583 166.676 270.028 165.852C270.473 165.028 271.08 164.366 271.847 163.864C272.614 163.362 273.485 162.983 274.46 162.727C275.445 162.472 276.477 162.292 277.557 162.188C278.826 162.055 279.848 161.932 280.625 161.818C281.402 161.695 281.965 161.515 282.315 161.278C282.666 161.042 282.841 160.691 282.841 160.227V160.142C282.841 159.242 282.557 158.546 281.989 158.054C281.43 157.562 280.634 157.315 279.602 157.315C278.513 157.315 277.647 157.557 277.003 158.04C276.359 158.513 275.933 159.11 275.724 159.83L270.128 159.375C270.412 158.049 270.971 156.903 271.804 155.938C272.637 154.962 273.712 154.214 275.028 153.693C276.354 153.163 277.888 152.898 279.631 152.898C280.843 152.898 282.003 153.04 283.111 153.324C284.228 153.608 285.218 154.048 286.08 154.645C286.951 155.241 287.637 156.009 288.139 156.946C288.641 157.874 288.892 158.987 288.892 160.284V175H283.153V171.974H282.983C282.633 172.656 282.164 173.258 281.577 173.778C280.99 174.29 280.284 174.692 279.46 174.986C278.636 175.27 277.685 175.412 276.605 175.412ZM278.338 171.236C279.228 171.236 280.014 171.061 280.696 170.71C281.378 170.35 281.913 169.867 282.301 169.261C282.689 168.655 282.884 167.969 282.884 167.202V164.886C282.694 165.009 282.434 165.123 282.102 165.227C281.78 165.322 281.416 165.412 281.009 165.497C280.601 165.573 280.194 165.644 279.787 165.71C279.38 165.767 279.01 165.819 278.679 165.866C277.969 165.971 277.348 166.136 276.818 166.364C276.288 166.591 275.876 166.899 275.582 167.287C275.289 167.666 275.142 168.139 275.142 168.707C275.142 169.531 275.44 170.161 276.037 170.597C276.643 171.023 277.41 171.236 278.338 171.236ZM299.638 162.386V175H293.587V153.182H299.354V157.031H299.609C300.092 155.762 300.902 154.759 302.038 154.02C303.175 153.272 304.553 152.898 306.172 152.898C307.687 152.898 309.008 153.229 310.135 153.892C311.262 154.555 312.138 155.502 312.763 156.733C313.388 157.955 313.7 159.413 313.7 161.108V175H307.649V162.188C307.659 160.852 307.318 159.811 306.626 159.062C305.935 158.305 304.983 157.926 303.771 157.926C302.957 157.926 302.237 158.101 301.612 158.452C300.997 158.802 300.514 159.313 300.163 159.986C299.822 160.649 299.647 161.449 299.638 162.386ZM326.509 175.355C324.852 175.355 323.351 174.929 322.006 174.077C320.671 173.215 319.611 171.951 318.825 170.284C318.048 168.608 317.66 166.553 317.66 164.119C317.66 161.619 318.062 159.541 318.867 157.884C319.672 156.217 320.742 154.972 322.077 154.148C323.422 153.314 324.895 152.898 326.495 152.898C327.717 152.898 328.735 153.106 329.549 153.523C330.373 153.93 331.036 154.441 331.538 155.057C332.049 155.663 332.437 156.259 332.702 156.847H332.887V145.909H338.924V175H332.958V171.506H332.702C332.418 172.112 332.016 172.713 331.495 173.31C330.984 173.897 330.316 174.384 329.492 174.773C328.678 175.161 327.683 175.355 326.509 175.355ZM328.427 170.54C329.402 170.54 330.226 170.275 330.898 169.744C331.58 169.205 332.101 168.452 332.461 167.486C332.83 166.52 333.015 165.388 333.015 164.091C333.015 162.794 332.835 161.667 332.475 160.71C332.115 159.754 331.594 159.015 330.913 158.494C330.231 157.973 329.402 157.713 328.427 157.713C327.433 157.713 326.594 157.983 325.913 158.523C325.231 159.062 324.715 159.811 324.364 160.767C324.014 161.723 323.839 162.831 323.839 164.091C323.839 165.36 324.014 166.482 324.364 167.457C324.724 168.423 325.24 169.181 325.913 169.73C326.594 170.27 327.433 170.54 328.427 170.54ZM154.247 210.386V223H148.196V201.182H153.963V205.031H154.219C154.702 203.762 155.511 202.759 156.648 202.02C157.784 201.272 159.162 200.898 160.781 200.898C162.296 200.898 163.617 201.229 164.744 201.892C165.871 202.555 166.747 203.502 167.372 204.733C167.997 205.955 168.31 207.413 168.31 209.108V223H162.259V210.188C162.268 208.852 161.927 207.811 161.236 207.062C160.545 206.305 159.593 205.926 158.381 205.926C157.566 205.926 156.847 206.101 156.222 206.452C155.606 206.802 155.123 207.313 154.773 207.986C154.432 208.649 154.257 209.449 154.247 210.386ZM182.937 223.426C180.73 223.426 178.822 222.957 177.212 222.02C175.612 221.073 174.376 219.757 173.505 218.071C172.634 216.376 172.198 214.411 172.198 212.176C172.198 209.922 172.634 207.953 173.505 206.267C174.376 204.572 175.612 203.256 177.212 202.318C178.822 201.371 180.73 200.898 182.937 200.898C185.143 200.898 187.047 201.371 188.647 202.318C190.257 203.256 191.497 204.572 192.369 206.267C193.24 207.953 193.675 209.922 193.675 212.176C193.675 214.411 193.24 216.376 192.369 218.071C191.497 219.757 190.257 221.073 188.647 222.02C187.047 222.957 185.143 223.426 182.937 223.426ZM182.965 218.739C183.969 218.739 184.807 218.455 185.479 217.886C186.152 217.309 186.658 216.523 186.999 215.528C187.35 214.534 187.525 213.402 187.525 212.134C187.525 210.865 187.35 209.733 186.999 208.739C186.658 207.744 186.152 206.958 185.479 206.381C184.807 205.803 183.969 205.514 182.965 205.514C181.952 205.514 181.1 205.803 180.408 206.381C179.727 206.958 179.21 207.744 178.86 208.739C178.519 209.733 178.349 210.865 178.349 212.134C178.349 213.402 178.519 214.534 178.86 215.528C179.21 216.523 179.727 217.309 180.408 217.886C181.1 218.455 181.952 218.739 182.965 218.739ZM201.367 223L195.43 201.182H201.552L204.933 215.841H205.131L208.654 201.182H214.663L218.242 215.756H218.427L221.751 201.182H227.859L221.935 223H215.529L211.779 209.278H211.509L207.759 223H201.367Z" fill="white"/>
<path d="M48.4659 193.909V223H42.4148V193.909H48.4659ZM63.1712 223.426C60.9647 223.426 59.0566 222.957 57.4467 222.02C55.8464 221.073 54.6106 219.757 53.7393 218.071C52.8681 216.376 52.4325 214.411 52.4325 212.176C52.4325 209.922 52.8681 207.953 53.7393 206.267C54.6106 204.572 55.8464 203.256 57.4467 202.318C59.0566 201.371 60.9647 200.898 63.1712 200.898C65.3776 200.898 67.281 201.371 68.8814 202.318C70.4912 203.256 71.7318 204.572 72.603 206.267C73.4742 207.953 73.9098 209.922 73.9098 212.176C73.9098 214.411 73.4742 216.376 72.603 218.071C71.7318 219.757 70.4912 221.073 68.8814 222.02C67.281 222.957 65.3776 223.426 63.1712 223.426ZM63.1996 218.739C64.2034 218.739 65.0414 218.455 65.7138 217.886C66.3861 217.309 66.8928 216.523 67.2337 215.528C67.584 214.534 67.7592 213.402 67.7592 212.134C67.7592 210.865 67.584 209.733 67.2337 208.739C66.8928 207.744 66.3861 206.958 65.7138 206.381C65.0414 205.803 64.2034 205.514 63.1996 205.514C62.1863 205.514 61.334 205.803 60.6428 206.381C59.9609 206.958 59.4448 207.744 59.0945 208.739C58.7536 209.733 58.5831 210.865 58.5831 212.134C58.5831 213.402 58.7536 214.534 59.0945 215.528C59.4448 216.523 59.9609 217.309 60.6428 217.886C61.334 218.455 62.1863 218.739 63.1996 218.739ZM87.674 231.636C85.7138 231.636 84.0329 231.366 82.6314 230.827C81.2393 230.296 80.1314 229.572 79.3075 228.653C78.4837 227.735 77.9486 226.703 77.7024 225.557L83.299 224.804C83.4695 225.24 83.7393 225.647 84.1087 226.026C84.478 226.404 84.9657 226.707 85.5717 226.935C86.1873 227.171 86.9354 227.29 87.8161 227.29C89.1323 227.29 90.2166 226.968 91.0689 226.324C91.9306 225.689 92.3615 224.624 92.3615 223.128V219.136H92.1058C91.8407 219.742 91.4429 220.315 90.9126 220.855C90.3823 221.395 89.7005 221.835 88.8672 222.176C88.0339 222.517 87.0395 222.688 85.8842 222.688C84.246 222.688 82.7545 222.309 81.4098 221.551C80.0746 220.784 79.0092 219.615 78.2138 218.043C77.4278 216.461 77.0348 214.463 77.0348 212.048C77.0348 209.577 77.4373 207.512 78.2422 205.855C79.0471 204.198 80.1172 202.957 81.4524 202.134C82.7971 201.31 84.2696 200.898 85.87 200.898C87.0916 200.898 88.1143 201.106 88.9382 201.523C89.7621 201.93 90.425 202.441 90.9268 203.057C91.4382 203.663 91.8312 204.259 92.1058 204.847H92.3331V201.182H98.3416V223.213C98.3416 225.069 97.8871 226.622 96.978 227.872C96.0689 229.122 94.8094 230.06 93.1996 230.685C91.5992 231.319 89.7573 231.636 87.674 231.636ZM87.8018 218.142C88.7772 218.142 89.6011 217.901 90.2734 217.418C90.9553 216.925 91.4761 216.224 91.8359 215.315C92.2053 214.397 92.3899 213.298 92.3899 212.02C92.3899 210.741 92.21 209.634 91.8501 208.696C91.4903 207.749 90.9695 207.015 90.2876 206.494C89.6058 205.973 88.7772 205.713 87.8018 205.713C86.8075 205.713 85.9695 205.983 85.2876 206.523C84.6058 207.053 84.0897 207.792 83.7393 208.739C83.389 209.686 83.2138 210.779 83.2138 212.02C83.2138 213.279 83.389 214.368 83.7393 215.287C84.0992 216.196 84.6153 216.902 85.2876 217.403C85.9695 217.896 86.8075 218.142 87.8018 218.142ZM103.157 223V201.182H109.208V223H103.157ZM106.197 198.369C105.297 198.369 104.525 198.071 103.881 197.474C103.247 196.868 102.93 196.144 102.93 195.301C102.93 194.468 103.247 193.753 103.881 193.156C104.525 192.55 105.297 192.247 106.197 192.247C107.096 192.247 107.863 192.55 108.498 193.156C109.142 193.753 109.464 194.468 109.464 195.301C109.464 196.144 109.142 196.868 108.498 197.474C107.863 198.071 107.096 198.369 106.197 198.369ZM120.107 210.386V223H114.055V201.182H119.822V205.031H120.078C120.561 203.762 121.371 202.759 122.507 202.02C123.643 201.272 125.021 200.898 126.641 200.898C128.156 200.898 129.477 201.229 130.604 201.892C131.731 202.555 132.607 203.502 133.232 204.733C133.857 205.955 134.169 207.413 134.169 209.108V223H128.118V210.188C128.127 208.852 127.786 207.811 127.095 207.062C126.404 206.305 125.452 205.926 124.24 205.926C123.426 205.926 122.706 206.101 122.081 206.452C121.465 206.802 120.982 207.313 120.632 207.986C120.291 208.649 120.116 209.449 120.107 210.386Z" fill="#4A4DC7"/>
</svg>
